<?xml version="1.0" encoding="utf-8"?>
<!-- Generator: Adobe Illustrator 23.0.2, SVG Export Plug-In . SVG Version: 6.00 Build 0)  -->
<svg version="1.1" id="Layer_1" xmlns="http://www.w3.org/2000/svg" xmlns:xlink="http://www.w3.org/1999/xlink" x="0px" y="0px"
	 viewBox="0 0 275.5 64.7" style="enable-background:new 0 0 275.5 64.7;" xml:space="preserve">
<style type="text/css">
	.st0{fill:#FFFFFF;}
</style>
<title>polaris-wireless</title>
<path class="st0" d="M77,26.6h-3.6V39h-2.6V12h6.1c3.6,0,6.7,2.9,6.7,7.3S80.5,26.6,77,26.6z M76.5,14.2h-3.1v10h3.2
	c2.3,0,4.3-1.9,4.3-5S78.9,14.2,76.5,14.2z"/>
<path class="st0" d="M92.1,39.3c-4.8,0-8.1-4.1-8.1-9.9s3.3-10,8.1-10s8,4.2,8,10S96.8,39.3,92.1,39.3z M92.1,21.6
	c-3.2,0-5.6,3.3-5.6,7.8s2.4,7.8,5.6,7.8s5.6-3.2,5.6-7.8S95.2,21.7,92.1,21.6L92.1,21.6z"/>
<path class="st0" d="M106.7,39.5c-1.5-0.5-3-1.8-3-4.7V9.9h2.5v24.7c-0.1,1.4,0.7,2.8,2.1,3.3L106.7,39.5z"/>
<path class="st0" d="M122.7,39.4c-1.3-0.3-2.3-1.3-2.5-2.6c-0.9,1.6-2.7,2.6-4.5,2.6c-3,0-5.1-2.2-5.1-5.5c-0.2-3.1,2.2-5.8,5.3-6
	l3.8-0.4v-1.9c0-2.5-1.3-3.9-3.7-3.9c-1.4,0-2.8,0.5-4,1.4l-0.4-2.2c1.3-0.9,2.9-1.4,4.6-1.4c3.6,0,6,2.2,6,6.3v8.8
	c0,2,1,2.8,2.1,3.1L122.7,39.4z M119.7,29.5l-3.4,0.3c-2,0.2-3.5,2-3.3,4c0,0,0,0,0,0c0,2,1.3,3.4,2.9,3.4c1.8,0,3.8-1.9,3.8-4.5
	L119.7,29.5z"/>
<path class="st0" d="M134.6,21.9c-3.1,0-5.5,2.5-5.5,6.9V39h-2.5V19.8h2.3l0.1,3.3c0.6-2.1,2.6-3.5,5.5-3.5l0.4,2.3H134.6z"/>
<path class="st0" d="M139.1,16.2c-0.6,0-1.6-1.3-1.6-2s1-2.1,1.6-2.1s1.6,1.4,1.6,2.1S139.7,16.2,139.1,16.2z M137.9,39V19.8h2.5V39
	H137.9z"/>
<path class="st0" d="M148.6,39.3c-1.6,0.1-3.1-0.4-4.3-1.3l-0.6-2.9c1.2,1.3,3,2.1,4.8,2.1c1.6,0.2,3-1,3.2-2.6c0-0.1,0-0.2,0-0.3
	c0-1.7-1.1-2.9-2.9-4.1c-2.9-1.9-4.4-3.5-4.4-6.1c0-2.9,2.2-4.7,5-4.7c1.3,0,2.6,0.4,3.7,1.1l-0.4,2.1c-1-0.7-2.1-1.1-3.3-1.1
	c-1.4-0.1-2.6,0.9-2.7,2.3c0,0.1,0,0.1,0,0.2c0,1.7,1,2.6,2.7,3.7c3,2,4.7,3.7,4.7,6.5C154.1,37.3,152,39.3,148.6,39.3z"/>
<path class="st0" d="M185.9,39.3h-1.1l-4.2-15.1c-0.7-2.3-1.3-4.7-1.9-7.6h-0.1c-0.6,2.8-1.3,5.2-1.9,7.6l-4.2,15.1h-1.1L163.7,12
	h2.6l3.8,14.1c0.6,2.1,1.3,4.6,1.7,7h0.1c0.6-2.4,1.1-4.9,1.7-7l3.8-14.1h2.4l3.8,14.1c0.6,2.2,1.2,4.7,1.7,7h0.1
	c0.5-2.3,1.1-4.8,1.8-7L191,12h2.4L185.9,39.3z"/>
<path class="st0" d="M197.9,16.2c-0.6,0-1.6-1.3-1.6-2s1-2.1,1.6-2.1s1.6,1.4,1.6,2.1S198.4,16.2,197.9,16.2z M196.6,39V19.8h2.5V39
	H196.6z"/>
<path class="st0" d="M211.7,21.9c-3.1,0-5.5,2.5-5.5,6.9V39h-2.4V19.8h2.3l0.1,3.3c0.6-2.1,2.6-3.5,5.5-3.5l0.4,2.3H211.7z"/>
<path class="st0" d="M226.6,28.1l-1.4,1.4h-9.9c-0.2,4,2.2,7.7,6,7.7c1.7,0,3.4-0.6,4.7-1.7l-0.6,2.7c-1.3,0.8-2.9,1.2-4.4,1.1
	c-4.7,0-8.2-4-8.2-9.9c0-6,3.6-10,7.5-10c4.3,0,6.5,3.5,6.5,7.1C226.7,27.1,226.6,27.6,226.6,28.1z M220.2,21.6
	c-2.4,0-4.5,2.8-4.9,5.9h8.9c0-0.3,0-0.5,0-0.8C224.2,24.3,222.9,21.6,220.2,21.6L220.2,21.6z"/>
<path class="st0" d="M233.2,39.5c-1.5-0.5-3-1.8-3-4.7V9.9h2.5v24.7c-0.1,1.4,0.7,2.8,2.1,3.3L233.2,39.5z"/>
<path class="st0" d="M251,28.1l-1.4,1.4h-9.9c-0.2,4,2.2,7.7,6,7.7c1.7,0,3.4-0.6,4.7-1.7l-0.6,2.7c-1.3,0.8-2.9,1.2-4.4,1.1
	c-4.7,0-8.2-4-8.2-9.9c0-6,3.6-10,7.5-10c4.3,0,6.5,3.5,6.5,7.1C251.1,27.1,251.1,27.6,251,28.1z M244.6,21.6
	c-2.5,0-4.5,2.8-4.9,5.9h8.9c0-0.3,0-0.5,0-0.8C248.7,24.3,247.3,21.6,244.6,21.6L244.6,21.6z"/>
<path class="st0" d="M257.7,39.3c-1.5,0-3.1-0.4-4.3-1.3l-0.5-2.9c1.2,1.3,3,2.1,4.8,2.1c1.6,0.2,3-1,3.2-2.6c0-0.1,0-0.2,0-0.3
	c0-1.7-1.1-2.9-2.9-4.1c-2.9-1.9-4.4-3.5-4.4-6.1c0-2.9,2.2-4.7,5-4.7c1.3,0,2.6,0.4,3.7,1.1l-0.3,2.1c-1-0.7-2.1-1.1-3.3-1.1
	c-1.4-0.1-2.6,0.9-2.7,2.3c0,0.1,0,0.1,0,0.2c0,1.7,1,2.6,2.7,3.7c3,2,4.7,3.7,4.7,6.5C263.3,37.3,261.1,39.3,257.7,39.3z"/>
<path class="st0" d="M269.9,39.3c-1.6,0.1-3.1-0.4-4.3-1.3l-0.5-2.9c1.3,1.3,3,2.1,4.8,2.1c1.6,0.2,3-1,3.2-2.6c0-0.1,0-0.2,0-0.3
	c0-1.7-1.1-2.9-2.9-4.1c-2.9-1.9-4.5-3.5-4.5-6.1c0-2.9,2.2-4.7,5-4.7c1.3,0,2.6,0.4,3.7,1.1l-0.4,2.1c-1-0.7-2.1-1.1-3.3-1.1
	c-1.4-0.1-2.6,0.9-2.7,2.3c0,0.1,0,0.1,0,0.2c0,1.7,1,2.6,2.7,3.7c3,2,4.7,3.7,4.7,6.5C275.5,37.3,273.3,39.3,269.9,39.3z"/>
<path class="st0" d="M25.2,63h-1.2v-0.2c0-0.5-0.1-1-0.5-1.3c-0.3-0.2-0.7-0.3-1.1-0.2h-0.2V60h0.2c0.5,0,1-0.1,1.3-0.5
	c0.2-0.3,0.3-0.7,0.3-1.1v-0.2h1.2v0.2c-0.1,0.5,0.1,1,0.5,1.4c0.3,0.2,0.7,0.3,1,0.2l0.3-0.1v1.3h-0.2c-0.4,0-0.9,0.1-1.2,0.4
	c-0.3,0.3-0.4,0.7-0.4,1.2L25.2,63z"/>
<path class="st0" d="M18.4,61.4l-1.1-0.1v-0.2c0-0.4-0.1-0.8-0.4-1.1c-0.3-0.2-0.6-0.3-0.9-0.2h-0.2v-1.1h0.2c0.4,0,0.8-0.1,1.1-0.4
	c0.2-0.3,0.3-0.6,0.2-0.9v-0.2h1.1v0.2c0,0.4,0.1,0.9,0.4,1.2c0.3,0.2,0.6,0.2,0.9,0.2l0.3-0.1v1.2h-0.2c-0.4,0-0.7,0.1-1,0.4
	c-0.2,0.3-0.3,0.6-0.3,1L18.4,61.4z"/>
<path class="st0" d="M24.5,57.8l-1.2-0.1v-0.2c0.1-0.5-0.1-1.1-0.5-1.5c-0.3-0.2-0.8-0.3-1.2-0.3h-0.2v-1.3h0.2
	c0.5,0,1.1-0.1,1.4-0.5c0.3-0.3,0.4-0.8,0.3-1.2v-0.2h1.3v0.2c-0.1,0.6,0.1,1.1,0.5,1.5c0.3,0.2,0.8,0.3,1.1,0.2l0.3-0.1v1.4h-0.2
	c-0.5,0-1,0.1-1.3,0.5c-0.3,0.4-0.5,0.8-0.4,1.3L24.5,57.8z"/>
<path class="st0" d="M17.6,57.1l-1.2-0.1v-0.2c0-0.5-0.1-1-0.5-1.3c-0.3-0.2-0.7-0.3-1.1-0.2h-0.2V54h0.2c0.5,0,1-0.1,1.3-0.5
	c0.2-0.3,0.3-0.7,0.3-1.1v-0.2h1.1v0.2c-0.1,0.5,0.1,1,0.5,1.4c0.3,0.2,0.7,0.3,1,0.2l0.3-0.1v1.3h-0.2c-0.4,0-0.9,0.1-1.2,0.4
	c-0.3,0.3-0.4,0.7-0.4,1.2L17.6,57.1z"/>
<path class="st0" d="M10.8,55.3l-1.1-0.1v-0.2c0-0.4-0.1-0.8-0.4-1.1c-0.3-0.2-0.6-0.3-0.9-0.2H8.2v-1.1h0.2c0.4,0,0.8-0.1,1.1-0.4
	c0.2-0.3,0.3-0.6,0.2-0.9v-0.2h1v0.2c0,0.4,0.1,0.9,0.4,1.2c0.3,0.2,0.6,0.2,0.9,0.2l0.3-0.1v1.2h-0.2c-0.4,0-0.7,0.1-1,0.4
	c-0.2,0.3-0.3,0.6-0.3,1L10.8,55.3z"/>
<path class="st0" d="M24,51.3l-1.3-0.1V51c0.1-0.6-0.2-1.2-0.6-1.6c-0.4-0.3-0.8-0.4-1.3-0.3h-0.2v-1.4h0.2c0.6,0.1,1.2-0.2,1.6-0.6
	c0.3-0.4,0.4-0.8,0.3-1.3v-0.2H24v0.2c-0.1,0.6,0.1,1.3,0.6,1.7c0.4,0.2,0.8,0.3,1.3,0.2l0.3-0.1v1.5h-0.2c-0.5,0-1.1,0.2-1.4,0.5
	c-0.3,0.4-0.5,0.9-0.5,1.4L24,51.3z"/>
<path class="st0" d="M16.6,50.7l-1.2-0.1v-0.2c0-0.5-0.2-1.1-0.5-1.4c-0.3-0.2-0.8-0.3-1.2-0.3h-0.2v-1.4h0.2c0.5,0,1.1-0.1,1.4-0.5
	c0.3-0.3,0.4-0.8,0.3-1.2v-0.2h1.3v0.2c-0.1,0.6,0.1,1.1,0.5,1.5c0.3,0.2,0.7,0.3,1.1,0.2l0.3-0.1v1.4h-0.2c-0.5,0-1,0.1-1.3,0.5
	c-0.3,0.4-0.5,0.8-0.4,1.3V50.7z"/>
<path class="st0" d="M10,49.2l-1.1-0.1V49c0-0.5-0.1-0.9-0.5-1.3c-0.3-0.2-0.6-0.3-1-0.2H7.2v-1.2h0.2c0.5,0,0.9-0.1,1.2-0.4
	c0.2-0.3,0.3-0.6,0.3-1v-0.2H10v0.2c-0.1,0.5,0.1,1,0.5,1.3c0.3,0.2,0.7,0.3,1,0.2l0.3-0.1v1.3h-0.2c-0.4,0-0.8,0.1-1.1,0.4
	C10.1,48.2,10,48.6,10,49L10,49.2z"/>
<path class="st0" d="M5.2,47.6l-1.1-0.1v-0.2c0-0.4-0.1-0.8-0.4-1.1C3.5,46,3.2,46,2.9,46H2.6v-1.1h0.2c0.4,0,0.8-0.1,1-0.4
	c0.2-0.3,0.3-0.6,0.2-0.9v-0.2h1.1v0.2c-0.1,0.4,0.1,0.9,0.4,1.2c0.3,0.2,0.6,0.2,0.9,0.2l0.3-0.1V46H6.5c-0.4,0-0.7,0.1-1,0.4
	c-0.2,0.3-0.3,0.6-0.3,1L5.2,47.6z"/>
<path class="st0" d="M23.7,44.6l-1.5-0.1v-0.2c0.1-0.7-0.2-1.5-0.7-2c-0.5-0.3-1-0.4-1.6-0.3h-0.2v-1.6h0.2c0.7,0.1,1.4-0.2,1.9-0.7
	c0.3-0.5,0.5-1,0.4-1.6v-0.2h1.5V38c-0.1,0.8,0.2,1.5,0.7,2.1c0.5,0.3,1,0.4,1.5,0.3l0.3-0.1V42H26c-0.7,0-1.3,0.2-1.8,0.6
	c-0.4,0.5-0.6,1.1-0.6,1.8L23.7,44.6z"/>
<path class="st0" d="M16.1,43.7l-1.3-0.1v-0.2c0.1-0.6-0.2-1.2-0.6-1.6c-0.4-0.3-0.8-0.4-1.3-0.3h-0.2V40h0.2
	c0.6,0.1,1.2-0.2,1.6-0.6c0.3-0.4,0.4-0.8,0.3-1.3v-0.2h1.3v0.2c-0.1,0.6,0.1,1.3,0.6,1.7c0.4,0.2,0.8,0.3,1.3,0.2l0.3-0.1v1.5H18
	c-0.5,0-1.1,0.2-1.4,0.5c-0.3,0.4-0.5,0.9-0.5,1.4L16.1,43.7z"/>
<path class="st0" d="M9.4,42.8l-1.2-0.1v-0.2C8.2,42,8,41.5,7.6,41.1c-0.3-0.2-0.8-0.3-1.2-0.3H6.2v-1.3h0.2
	c0.5,0.1,1.1-0.1,1.4-0.5c0.3-0.3,0.4-0.8,0.3-1.2v-0.2h1.3v0.2c-0.1,0.6,0.1,1.1,0.6,1.5c0.3,0.2,0.7,0.3,1.1,0.2l0.3-0.1v1.4h-0.2
	c-0.5,0-1,0.1-1.3,0.5c-0.3,0.4-0.5,0.8-0.4,1.3L9.4,42.8z"/>
<path class="st0" d="M3.9,41.9l-1.2-0.1v-0.2c0-0.5-0.1-1-0.5-1.3C1.9,40,1.5,39.9,1.2,40H0.9v-1.2h0.2c0.5,0,1-0.1,1.3-0.5
	c0.2-0.3,0.3-0.7,0.3-1.1V37h1.2v0.2c-0.1,0.5,0.1,1,0.5,1.4c0.3,0.2,0.7,0.3,1,0.2l0.3-0.1V40H5.4c-0.4,0-0.9,0.1-1.2,0.4
	c-0.3,0.3-0.4,0.8-0.4,1.2V41.9z"/>
<path class="st0" d="M25.2,1c0,0.4,0.1,0.8,0.4,1.2c0.3,0.3,0.7,0.5,1.2,0.4H27v1.3l-0.3-0.1c-0.3-0.1-0.7,0-1,0.2
	c-0.4,0.4-0.6,0.9-0.5,1.4v0.2H24V5.4c0.1-0.4,0-0.8-0.3-1.1c-0.3-0.3-0.8-0.5-1.3-0.5h-0.2V2.6h0.2c0.4,0.1,0.8,0,1.1-0.2
	C23.9,2,24.1,1.5,24,1V0.8l1.2-0.1L25.2,1z"/>
<path class="st0" d="M18.3,2.7c0,0.4,0.1,0.7,0.3,1c0.3,0.3,0.6,0.4,1,0.4h0.2v1.2l-0.3-0.1c-0.3-0.1-0.6,0-0.9,0.1
	c-0.3,0.3-0.5,0.7-0.4,1.2v0.2h-1.1V6.5c0-0.3,0-0.6-0.2-0.9c-0.3-0.3-0.7-0.4-1.1-0.4h-0.2V4H16c0.3,0.1,0.6,0,0.9-0.2
	c0.3-0.3,0.4-0.7,0.4-1.1V2.5l1.1-0.1L18.3,2.7z"/>
<path class="st0" d="M24.4,6.3c0,0.5,0.1,0.9,0.4,1.3c0.3,0.3,0.8,0.5,1.3,0.5h0.2v1.4l-0.3-0.1c-0.4-0.1-0.8,0-1.1,0.2
	c-0.4,0.4-0.6,1-0.5,1.5v0.2h-1.2v-0.2c0.1-0.4,0-0.8-0.3-1.2c-0.4-0.4-0.9-0.6-1.4-0.5h-0.2V8.1h0.2c0.4,0.1,0.8,0,1.2-0.3
	c0.4-0.4,0.6-0.9,0.5-1.5V6.1L24.5,6L24.4,6.3z"/>
<path class="st0" d="M17.6,7c0,0.4,0.1,0.8,0.4,1.2c0.3,0.3,0.7,0.5,1.2,0.4h0.2v1.3l-0.3-0.1c-0.3-0.1-0.7,0-1,0.2
	c-0.4,0.4-0.6,0.9-0.5,1.4v0.2h-1.2v-0.2c0.1-0.4,0-0.8-0.3-1.1c-0.3-0.3-0.8-0.5-1.3-0.5h-0.2V8.5h0.2c0.4,0.1,0.8,0,1.1-0.2
	c0.3-0.3,0.5-0.8,0.5-1.3V6.8l1.2-0.1L17.6,7z"/>
<path class="st0" d="M10.8,8.7c0,0.4,0.1,0.7,0.3,1c0.3,0.3,0.6,0.4,1,0.4h0.2v1.2L12,11.2c-0.3-0.1-0.6,0-0.9,0.1
	c-0.3,0.3-0.5,0.7-0.4,1.2v0.2H9.7v-0.2c0-0.3,0-0.6-0.2-0.9c-0.3-0.3-0.7-0.4-1.1-0.4H8.1V10h0.2c0.3,0,0.6,0,0.9-0.2
	c0.3-0.3,0.4-0.7,0.4-1.1V8.5l1.1-0.1L10.8,8.7z"/>
<path class="st0" d="M24,12.8c0,0.5,0.2,1,0.5,1.4c0.4,0.4,0.9,0.6,1.4,0.5h0.2v1.5l-0.2-0.1c-0.4-0.1-0.9,0-1.3,0.2
	c-0.5,0.4-0.7,1.1-0.6,1.7v0.2h-1.4V18c0.1-0.5-0.1-0.9-0.3-1.3c-0.4-0.4-1-0.6-1.6-0.6h-0.2v-1.4h0.2c0.5,0.1,0.9,0,1.3-0.3
	c0.4-0.4,0.6-1,0.6-1.6v-0.2l1.3-0.1L24,12.8z"/>
<path class="st0" d="M16.6,13.4c0,0.5,0.1,0.9,0.4,1.3c0.3,0.3,0.8,0.5,1.3,0.5h0.2v1.4l-0.3-0.1c-0.4-0.1-0.8,0-1.1,0.2
	c-0.4,0.4-0.6,1-0.5,1.5v0.2h-1.3v-0.2c0.1-0.4,0-0.8-0.3-1.2c-0.4-0.4-0.9-0.6-1.4-0.5h-0.2v-1.4h0.2c0.4,0.1,0.8,0,1.2-0.3
	c0.4-0.4,0.6-0.9,0.5-1.5v-0.2l1.2-0.1L16.6,13.4z"/>
<path class="st0" d="M10,14.8c0,0.4,0.1,0.8,0.4,1.1c0.3,0.3,0.7,0.4,1.1,0.4h0.2v1.3l-0.3-0.1c-0.3-0.1-0.7,0-1,0.2
	c-0.3,0.3-0.5,0.8-0.4,1.3v0.2H8.8L8.9,19c0-0.4,0-0.7-0.3-1c-0.3-0.3-0.8-0.5-1.2-0.4H7.2v-1.2h0.2c0.4,0.1,0.7,0,1-0.2
	c0.3-0.3,0.5-0.8,0.5-1.2v-0.2l1.1-0.1L10,14.8z"/>
<path class="st0" d="M5.2,16.5c0,0.4,0.1,0.7,0.3,1c0.3,0.3,0.6,0.4,1,0.4h0.2V19H6.4c-0.3-0.1-0.6,0-0.9,0.1
	c-0.3,0.3-0.5,0.7-0.4,1.2v0.2H4.1v-0.2c0.1-0.3,0-0.7-0.2-0.9C3.6,19.1,3.2,19,2.8,19H2.6v-1.2h0.2c0.3,0.1,0.6,0,0.9-0.2
	c0.3-0.3,0.4-0.7,0.4-1.1v-0.2l1.1-0.1L5.2,16.5z"/>
<path class="st0" d="M23.6,19.5c0,0.6,0.2,1.3,0.6,1.8c0.5,0.5,1.1,0.7,1.8,0.6h0.2v1.7l-0.3-0.1c-0.5-0.1-1.1,0-1.5,0.3
	c-0.6,0.5-0.8,1.3-0.7,2.1V26h-1.5v-0.2c0.1-0.6-0.1-1.1-0.4-1.6c-0.5-0.5-1.2-0.8-1.9-0.7h-0.2v-1.6h0.2c0.6,0.1,1.1,0,1.6-0.4
	c0.5-0.5,0.8-1.3,0.7-2v-0.2l1.5-0.1L23.6,19.5z"/>
<path class="st0" d="M16.1,20.4c0,0.5,0.1,1,0.5,1.4c0.4,0.4,0.9,0.6,1.4,0.5h0.2v1.5l-0.3-0.1c-0.4-0.1-0.9,0-1.3,0.2
	c-0.5,0.4-0.7,1.1-0.6,1.7v0.2h-1.3v-0.2c0.1-0.5-0.1-0.9-0.3-1.3c-0.4-0.4-1-0.6-1.5-0.6h-0.2v-1.4h0.2c0.5,0.1,0.9,0,1.3-0.3
	c0.4-0.4,0.6-1,0.6-1.6v-0.2l1.3-0.1L16.1,20.4z"/>
<path class="st0" d="M9.4,21.3c0,0.5,0.1,0.9,0.4,1.3c0.3,0.3,0.8,0.5,1.3,0.5h0.2v1.4l-0.3-0.1c-0.4-0.1-0.8,0-1.1,0.2
	c-0.4,0.4-0.6,1-0.5,1.5v0.2H8.1v-0.2c0.1-0.4,0-0.8-0.3-1.2c-0.4-0.4-0.9-0.6-1.4-0.5H6.2V23h0.2c0.4,0.1,0.8,0,1.2-0.3
	c0.4-0.4,0.6-0.9,0.5-1.5v-0.2L9.4,21L9.4,21.3z"/>
<path class="st0" d="M3.9,22.2c0,0.4,0.1,0.8,0.4,1.2c0.3,0.3,0.7,0.5,1.2,0.4h0.2v1.3L5.4,25c-0.3-0.1-0.7,0-1,0.2
	c-0.4,0.4-0.6,0.9-0.5,1.4v0.2H2.7v-0.2c0.1-0.4,0-0.8-0.3-1.1C2.1,25.2,1.6,25,1.1,25H0.9v-1.2h0.2c0.4,0.1,0.8,0,1.1-0.2
	c0.4-0.3,0.5-0.8,0.5-1.3V22h1.1V22.2z"/>
<path class="st0" d="M38.9,62.8c0-0.4-0.1-0.8-0.4-1.2c-0.3-0.3-0.7-0.5-1.2-0.4h-0.2v-1.3l0.3,0.1c0.3,0.1,0.7,0,1-0.2
	c0.4-0.4,0.6-0.9,0.5-1.4v-0.2H40v0.2c-0.1,0.4,0,0.8,0.3,1.1c0.3,0.3,0.8,0.5,1.3,0.5h0.3v1.3h-0.2c-0.4-0.1-0.8,0-1.1,0.2
	c-0.4,0.3-0.5,0.8-0.5,1.3V63h-1.2V62.8z"/>
<path class="st0" d="M45.8,61.1c0-0.4-0.1-0.7-0.3-1c-0.3-0.3-0.6-0.4-1-0.4h-0.2v-1.2l0.3,0.1c0.3,0.1,0.6,0,0.8-0.2
	c0.3-0.3,0.5-0.7,0.4-1.2v-0.2h1.1v0.2c0,0.3,0,0.6,0.2,0.9c0.3,0.3,0.7,0.4,1.1,0.4h0.2v1.2h-0.2c-0.3-0.1-0.6,0-0.9,0.2
	c-0.3,0.3-0.4,0.7-0.4,1.1v0.2l-1.1,0.1L45.8,61.1z"/>
<path class="st0" d="M39.7,57.5c0-0.5-0.1-0.9-0.4-1.3c-0.3-0.3-0.8-0.5-1.3-0.5h-0.2v-1.4l0.3,0.1c0.4,0.1,0.8,0,1.2-0.2
	c0.4-0.4,0.6-1,0.5-1.5v-0.2H41v0.2c-0.1,0.4,0,0.8,0.3,1.2c0.4,0.4,0.9,0.6,1.4,0.5h0.2v1.4h-0.2c-0.4-0.1-0.8,0-1.2,0.3
	c-0.4,0.4-0.6,0.9-0.6,1.4v0.2l-1.2,0.1L39.7,57.5z"/>
<path class="st0" d="M46.6,56.9c0-0.4-0.1-0.8-0.4-1.2c-0.3-0.3-0.7-0.5-1.2-0.4h-0.2V54l0.3,0.1c0.3,0.1,0.7,0,1-0.2
	c0.4-0.4,0.6-0.9,0.5-1.4v-0.2h1.2v0.2c-0.1,0.4,0,0.8,0.3,1.1c0.3,0.3,0.8,0.5,1.3,0.5h0.2v1.3h-0.2c-0.4-0.1-0.8,0-1.1,0.2
	c-0.4,0.3-0.5,0.8-0.5,1.3v0.2l-1.2,0.1L46.6,56.9z"/>
<path class="st0" d="M53.4,55.1c0-0.4-0.1-0.7-0.3-1c-0.3-0.3-0.6-0.4-1-0.4h-0.2v-1.2l0.3,0.1c0.3,0.1,0.6,0,0.8-0.2
	c0.3-0.3,0.5-0.7,0.4-1.2v-0.2h1.1v0.2c0,0.3,0,0.6,0.2,0.9c0.3,0.3,0.7,0.4,1.1,0.4H56v1.2h-0.2c-0.3,0-0.6,0-0.9,0.2
	c-0.3,0.3-0.4,0.7-0.4,1.1v0.2l-1.1,0.1L53.4,55.1z"/>
<path class="st0" d="M40.2,51.1c0-0.5-0.2-1-0.5-1.4c-0.4-0.4-0.9-0.6-1.4-0.5H38v-1.5l0.3,0.1c0.4,0.1,0.9,0,1.3-0.2
	c0.5-0.4,0.7-1.1,0.6-1.7v-0.2h1.3v0.2c-0.1,0.5,0.1,0.9,0.3,1.3c0.4,0.4,1,0.6,1.6,0.6h0.2v1.4h-0.2c-0.5-0.1-0.9,0-1.3,0.3
	c-0.4,0.4-0.6,1-0.6,1.6v0.2l-1.3,0.1L40.2,51.1z"/>
<path class="st0" d="M47.6,50.5c0-0.5-0.1-0.9-0.4-1.3c-0.3-0.3-0.8-0.5-1.3-0.5h-0.2v-1.4l0.3,0.1c0.4,0.1,0.8,0,1.1-0.2
	c0.4-0.4,0.6-1,0.5-1.5v-0.2h1.3v0.2c-0.1,0.4,0,0.8,0.3,1.2c0.4,0.4,0.9,0.6,1.4,0.5h0.2v1.4h-0.2c-0.4-0.1-0.8,0-1.2,0.3
	c-0.4,0.4-0.6,0.9-0.5,1.5v0.2l-1.2,0.1L47.6,50.5z"/>
<path class="st0" d="M54.2,49c0-0.4-0.1-0.8-0.4-1.1c-0.3-0.3-0.7-0.4-1.1-0.4h-0.2v-1.3l0.3,0.1c0.3,0.1,0.7,0,1-0.2
	c0.4-0.3,0.5-0.8,0.5-1.3v-0.2h1.2v0.2c0,0.4,0,0.7,0.3,1c0.3,0.3,0.8,0.5,1.2,0.4H57v1.2h-0.2c-0.4-0.1-0.7,0-1,0.2
	c-0.4,0.3-0.6,0.8-0.5,1.3v0.2l-1.1,0.1L54.2,49z"/>
<path class="st0" d="M59,47.3c0-0.4-0.1-0.7-0.3-1c-0.3-0.3-0.6-0.4-1-0.4h-0.2v-1.2l0.3,0.1c0.3,0.1,0.6,0,0.8-0.2
	c0.3-0.3,0.5-0.7,0.4-1.2v-0.2H60v0.2c0,0.3,0,0.6,0.2,0.9c0.3,0.3,0.7,0.4,1.1,0.4h0.2V46h-0.2c-0.3-0.1-0.6,0-0.9,0.2
	c-0.3,0.3-0.4,0.7-0.4,1.1v0.2L59,47.6V47.3z"/>
<path class="st0" d="M40.5,44.4c0-0.6-0.2-1.3-0.6-1.8c-0.5-0.4-1.1-0.6-1.7-0.6h-0.2v-1.7l0.3,0.1c0.5,0.1,1.1,0,1.5-0.3
	c0.6-0.5,0.8-1.3,0.7-2.1v-0.2H42V38c-0.1,0.6,0.1,1.1,0.4,1.6c0.5,0.5,1.2,0.8,1.9,0.7h0.2V42h-0.2c-0.6-0.1-1.1,0-1.6,0.4
	c-0.5,0.5-0.8,1.3-0.7,2v0.2l-1.5,0.1L40.5,44.4z"/>
<path class="st0" d="M48,43.4c0-0.5-0.1-1-0.5-1.4c-0.4-0.4-0.9-0.6-1.4-0.5h-0.2V40l0.3,0.1c0.4,0.1,0.9,0,1.3-0.2
	c0.5-0.4,0.7-1.1,0.6-1.7v-0.2h1.3v0.2c-0.1,0.5,0.1,0.9,0.3,1.3c0.4,0.4,1,0.6,1.6,0.6h0.2v1.4h-0.2c-0.5-0.1-0.9,0-1.3,0.3
	c-0.4,0.4-0.6,1-0.6,1.6v0.2l-1.3,0.1L48,43.4z"/>
<path class="st0" d="M54.7,42.6c0-0.5-0.1-0.9-0.4-1.3c-0.3-0.3-0.8-0.5-1.3-0.5h-0.2v-1.4l0.3,0.1c0.4,0.1,0.8,0,1.1-0.2
	c0.4-0.4,0.6-1,0.5-1.5v-0.2H56v0.2c-0.1,0.4,0,0.9,0.3,1.2c0.4,0.4,0.9,0.6,1.4,0.5h0.2v1.4h-0.2c-0.4-0.1-0.8,0-1.2,0.3
	c-0.4,0.4-0.6,0.9-0.5,1.5v0.2l-1.2,0.1L54.7,42.6z"/>
<path class="st0" d="M60.3,41.6c0-0.4-0.1-0.8-0.4-1.2c-0.3-0.3-0.7-0.5-1.2-0.5h-0.2v-1.3l0.3,0.1c0.3,0.1,0.7,0,1-0.2
	c0.4-0.4,0.6-0.9,0.5-1.4V37h1.2v0.2c-0.1,0.4,0,0.8,0.3,1.1c0.3,0.3,0.8,0.5,1.3,0.5h0.2v1.3H63c-0.4-0.1-0.8,0-1.1,0.2
	c-0.4,0.3-0.5,0.8-0.5,1.3v0.2l-1.2,0.1L60.3,41.6z"/>
<path class="st0" d="M38.9,0.8L40,0.9v0.2c0,0.5,0.1,1,0.5,1.3c0.3,0.2,0.7,0.3,1.1,0.2h0.2v1.3h-0.2c-0.5,0-1,0.1-1.3,0.5
	C40.1,4.7,40,5.1,40,5.5v0.2h-1.2V5.5c0.1-0.5-0.1-1-0.5-1.4c-0.3-0.2-0.7-0.3-1-0.2L37.1,4V2.7h0.2c0.4,0,0.9-0.1,1.2-0.4
	c0.3-0.4,0.4-0.8,0.4-1.3V0.8z"/>
<path class="st0" d="M45.8,2.5l1.1,0.1v0.2c0,0.4,0.1,0.8,0.4,1.1c0.3,0.2,0.6,0.3,0.9,0.2h0.2v1.2h-0.2c-0.4,0-0.8,0.1-1.1,0.4
	c-0.2,0.3-0.3,0.6-0.2,0.9v0.2h-1V6.5c0-0.4-0.1-0.9-0.4-1.2c-0.3-0.2-0.6-0.2-0.8-0.1l-0.3,0.1V4h0.2c0.4,0,0.7-0.1,1-0.4
	c0.2-0.3,0.3-0.6,0.3-1L45.8,2.5z"/>
<path class="st0" d="M39.7,6.1l1.2,0.1v0.2c-0.1,0.5,0.1,1.1,0.5,1.5c0.3,0.2,0.8,0.3,1.2,0.3h0.2v1.4h-0.2c-0.5,0-1.1,0.1-1.4,0.5
	c-0.3,0.3-0.4,0.8-0.3,1.2v0.2h-1.2v-0.2c0.1-0.6-0.1-1.1-0.5-1.5c-0.3-0.2-0.8-0.3-1.2-0.2l-0.3,0.1V8.1h0.2c0.5,0,1-0.1,1.3-0.5
	c0.3-0.4,0.5-0.8,0.4-1.3L39.7,6.1z"/>
<path class="st0" d="M46.5,6.7l1.2,0.1V7c0,0.5,0.1,1,0.5,1.3c0.3,0.2,0.7,0.3,1.1,0.2h0.2v1.3h-0.2c-0.5,0-1,0.1-1.3,0.5
	c-0.2,0.3-0.3,0.7-0.3,1.1v0.2h-1.2v-0.2c0.1-0.5-0.1-1-0.5-1.4c-0.3-0.2-0.7-0.3-1-0.2l-0.3,0.1V8.6H45c0.4,0,0.9-0.1,1.2-0.4
	c0.3-0.3,0.4-0.7,0.4-1.2L46.5,6.7z"/>
<path class="st0" d="M53.4,8.5l1.1,0.1v0.2c0,0.4,0.1,0.8,0.4,1.1c0.3,0.2,0.6,0.3,0.9,0.2h0.2v1.2h-0.2c-0.4,0-0.8,0.1-1.1,0.4
	c-0.2,0.3-0.3,0.6-0.2,0.9v0.2h-1v-0.2c0-0.4-0.1-0.9-0.4-1.2c-0.3-0.2-0.6-0.2-0.8-0.1l-0.3,0.1v-1.2h0.2c0.4,0,0.7-0.1,1-0.4
	c0.2-0.3,0.3-0.6,0.3-1L53.4,8.5z"/>
<path class="st0" d="M40.2,12.5l1.3,0.1v0.2c-0.1,0.6,0.2,1.2,0.6,1.6c0.4,0.3,0.8,0.4,1.3,0.3h0.2v1.4h-0.2
	c-0.6-0.1-1.2,0.2-1.6,0.6c-0.3,0.4-0.4,0.9-0.3,1.3v0.2h-1.3V18c0.1-0.6-0.1-1.3-0.6-1.7c-0.4-0.2-0.8-0.3-1.3-0.2l-0.3,0.1v-1.4
	h0.2c0.5,0,1.1-0.2,1.4-0.5c0.3-0.4,0.5-0.9,0.5-1.4L40.2,12.5z"/>
<path class="st0" d="M47.6,13.1l1.2,0.1v0.2c-0.1,0.5,0.1,1.1,0.5,1.5c0.3,0.2,0.8,0.3,1.2,0.3h0.2v1.4h-0.2c-0.5,0-1.1,0.1-1.4,0.5
	c-0.3,0.3-0.4,0.8-0.3,1.2v0.2h-1.2v-0.2c0.1-0.6-0.1-1.1-0.5-1.5c-0.3-0.2-0.7-0.3-1.1-0.2l-0.3,0.1v-1.4h0.2c0.5,0,1-0.1,1.3-0.5
	c0.3-0.4,0.5-0.8,0.4-1.3L47.6,13.1z"/>
<path class="st0" d="M54.1,14.6l1.1,0.1v0.2c0,0.5,0.1,0.9,0.5,1.3c0.3,0.2,0.6,0.3,1,0.2H57v1.2h-0.2c-0.5,0-0.9,0.1-1.2,0.4
	c-0.2,0.3-0.3,0.6-0.3,1v0.2h-1.1V19c0.1-0.5-0.1-1-0.5-1.3c-0.3-0.2-0.7-0.3-1-0.2l-0.3,0.1v-1.2h0.2c0.4,0,0.8-0.1,1.1-0.4
	c0.3-0.3,0.4-0.7,0.4-1.1L54.1,14.6z"/>
<path class="st0" d="M58.9,16.3l1.1,0.1v0.2c0,0.4,0.1,0.8,0.4,1.1c0.3,0.2,0.6,0.3,0.9,0.2h0.2V19h-0.2c-0.4,0-0.8,0.1-1.1,0.4
	C60,19.6,60,20,60,20.3v0.2h-1v-0.2c0.1-0.4-0.1-0.9-0.4-1.2C58.3,19,58,18.9,57.7,19l-0.3,0.1v-1.2h0.2c0.4,0,0.7-0.1,1-0.4
	c0.2-0.3,0.3-0.6,0.3-1L58.9,16.3z"/>
<path class="st0" d="M40.5,19.2l1.5,0.1v0.2c-0.1,0.7,0.2,1.5,0.7,2c0.5,0.3,1,0.5,1.6,0.4h0.2v1.6h-0.2c-0.7-0.1-1.4,0.2-1.9,0.7
	c-0.3,0.5-0.5,1-0.4,1.6v0.2h-1.5v-0.2c0.1-0.8-0.2-1.5-0.7-2.1c-0.5-0.3-1-0.4-1.5-0.3l-0.3,0.1v-1.7h0.2c0.6,0,1.3-0.2,1.7-0.6
	c0.4-0.5,0.6-1.1,0.6-1.8L40.5,19.2z"/>
<path class="st0" d="M48,20.2l1.3,0.1v0.2c-0.1,0.6,0.2,1.2,0.6,1.6c0.4,0.3,0.8,0.4,1.3,0.3h0.2v1.4h-0.2c-0.6-0.1-1.2,0.2-1.6,0.6
	c-0.3,0.4-0.4,0.8-0.3,1.3V26H48v-0.2c0.1-0.6-0.1-1.3-0.6-1.7c-0.4-0.2-0.8-0.3-1.3-0.2l-0.3,0.1v-1.5h0.2c0.5,0,1.1-0.2,1.4-0.5
	c0.3-0.4,0.5-0.9,0.5-1.4L48,20.2z"/>
<path class="st0" d="M54.7,21l1.2,0.1v0.2c-0.1,0.5,0.1,1.1,0.5,1.5c0.3,0.2,0.8,0.3,1.2,0.3h0.2v1.4h-0.2c-0.5,0-1.1,0.1-1.4,0.5
	c-0.3,0.3-0.4,0.8-0.3,1.2v0.2h-1.2v-0.2c0.1-0.6-0.1-1.1-0.5-1.5c-0.3-0.2-0.7-0.3-1.1-0.2l-0.3,0.1V23H53c0.5,0,1-0.1,1.3-0.5
	c0.3-0.4,0.5-0.8,0.4-1.3L54.7,21z"/>
<path class="st0" d="M60.2,22l1.2,0.1v0.2c0,0.5,0.1,0.9,0.4,1.3c0.3,0.2,0.7,0.3,1.1,0.2h0.2V25H63c-0.5,0-1,0.1-1.3,0.5
	c-0.2,0.3-0.3,0.7-0.3,1.1v0.2h-1.1v-0.2c0.1-0.5-0.1-1-0.5-1.4c-0.3-0.2-0.7-0.3-1-0.2l-0.3,0.1v-1.3h0.2c0.4,0,0.8-0.1,1.1-0.4
	c0.3-0.3,0.4-0.7,0.4-1.2V22z"/>
<path class="st0" d="M31.5,27.2c0,0-0.2,3.8-3.7,3.8s-4.1-2.8-4.1-4.2h-0.5c0,0-0.2,4.3-4.3,4.3s-3.4-3.3-3.4-3.3H15
	c0,0-0.4,3.6-3.2,3.6c-1.8,0.2-3.3-1.1-3.5-2.9c0-0.1,0-0.2,0-0.2H7.9c0,0-0.1,3-2.4,3s-2.3-2.5-2.3-2.5H2.6
	c0.2,1.3-0.6,2.5-1.9,2.7c-0.2,0-0.5,0.1-0.7,0v0.8c0,0,2.4-0.6,2.4,2.5h1c0,0-0.4-2.2,2.2-2.2s2.6,2.2,2.6,3h0.4
	c-0.2-1.4,0.8-2.8,2.3-3c0.2,0,0.5,0,0.7,0c1.7-0.1,3.1,1.1,3.3,2.7c0,0.2,0,0.4,0,0.6h0.7c-0.2-1.6,1-3.1,2.7-3.3
	c0.2,0,0.4,0,0.6,0c3.6,0,4.2,1.2,4.2,4.1h0.8c-0.2-1.9,1.2-3.6,3.1-3.8c0.2,0,0.4,0,0.6,0c4,0,4,2.9,4,3.8c0,0,0.6,3.5-4.3,3.5v0.6
	c2.2-0.1,4,1.5,4.2,3.7c0,0.2,0,0.4,0,0.5c0.2,1.6-1,3.1-2.6,3.3c-0.2,0-0.4,0-0.7,0V49c0,0,3.4,0.5,3.4,3.4
	c0.2,1.8-1.1,3.3-2.8,3.5c0,0,0,0,0,0c-0.6,0-0.3,0.3-0.3,0.3s3-0.2,3,2.4s-1.8,2.7-1.8,2.7V62c0,0,1.9-0.3,1.9,2.8h1.3
	c0,0-0.4-2.8,1.9-2.8v-0.6c0,0-2,0.1-2-2.9c0,0-0.1-1.8,2.7-1.8V56c0,0-2.5-0.2-2.5-3.7s3.4-2.8,3.4-2.8v-1.1
	c-1.8,0.1-3.4-1.3-3.5-3.1c0-0.1,0-0.3,0-0.4c0,0,0-4.1,4.2-4.1v-0.6c-2,0-3.7-1.6-3.7-3.6c0-0.1,0-0.1,0-0.2
	c-0.1-1.8,1.3-3.4,3.1-3.5c0.2,0,0.3,0,0.5,0c0,0,3.8,0.1,3.8,3.2h0.8c0,0,0.4-3.6,3.6-3.6s3.7,3.2,3.7,3.8h1c0,0-0.6-3.5,2.7-3.5
	c0,0,3.2-0.6,3.2,2.5h0.8c-0.1-1.4,1-2.6,2.4-2.6c0.1,0,0.1,0,0.2,0c1.1-0.1,2,0.8,2.1,1.9c0,0.1,0,0.2,0,0.2h0.7c0,0,1-2.5,2.5-2.5
	v-0.8c-1.2,0.1-2.2-0.8-2.3-2c0-0.1,0-0.2,0-0.3h-1c0,0-0.3,2-2,2s-2.5,0-2.5-2.6h-0.9c0,0-0.4,2.7-2.6,2.7c-1.8,0-3.2-1.4-3.2-3.1
	c0,0,0,0,0-0.1h-1c0,0,0,3.1-3.7,3.1S41,28.4,41,26.9h-0.6c0.1,2-1.3,3.7-3.3,3.9c-0.2,0-0.3,0-0.5,0c-1.7,0.2-3.3-1-3.5-2.8
	c0-0.3,0-0.6,0-0.9c-0.2-1.9,1.2-3.5,3.1-3.7c0.2,0,0.4,0,0.6,0v-0.7c0,0-3.9-0.7-3.9-4s2.5-3.2,3.4-3.2v-0.9
	c-1.9,0-3.4-1.5-3.3-3.4c0-0.1,0-0.2,0-0.2c0-1.4,1.2-2.6,2.6-2.6c0.1,0,0.1,0,0.2,0V7.7c0,0-2.7-0.4-2.7-2.7c0,0-0.3-2,1.9-2V2.4
	c0,0-2.4,0.6-2.4-2.4h-0.8c0,0-0.2,2.4-1.8,2.4V3c0,0,1.8,0.1,1.8,1.8s-0.8,2.9-2.2,2.9v0.7c1.2-0.1,2.3,0.9,2.3,2.2
	c0,0.1,0,0.1,0,0.2c0,2.4,0.1,3.9-3,3.9v0.9c1.5-0.1,2.8,1,2.9,2.5c0,0.2,0,0.3,0,0.5c0,3.2-1.4,4.2-3.7,4.2v0.9
	C27.9,23.6,31.5,23.7,31.5,27.2z"/>
</svg>
